TITLE ""
FILE "Step5_Track76.mp3" MP3
  TRACK 01 AUDIO
    TITLE "Step5_Track76_001"
    INDEX 01 00:00:00
  TRACK 02 AUDIO
    TITLE "Step5_Track76_002"
    INDEX 01 00:00:22
  TRACK 03 AUDIO
    TITLE "Step5_Track76_003"
    INDEX 01 00:01:69
  TRACK 04 AUDIO
    TITLE "Step5_Track76_004"
    INDEX 01 00:02:56
  TRACK 05 AUDIO
    TITLE "Step5_Track76_005"
    INDEX 01 00:04:08
  TRACK 06 AUDIO
    TITLE "Step5_Track76_006"
    INDEX 01 00:04:63
  TRACK 07 AUDIO
    TITLE "Step5_Track76_007"
    INDEX 01 00:06:60
  TRACK 08 AUDIO
    TITLE "Step5_Track76_008"
    INDEX 01 00:07:42
  TRACK 09 AUDIO
    TITLE "Step5_Track76_009"
    INDEX 01 00:08:63
  TRACK 10 AUDIO
    TITLE "Step5_Track76_010"
    INDEX 01 00:09:33
  TRACK 11 AUDIO
    TITLE "Step5_Track76_011"
    INDEX 01 00:11:55
  TRACK 12 AUDIO
    TITLE "Step5_Track76_012"
    INDEX 01 00:12:43
  TRACK 13 AUDIO
    TITLE "Step5_Track76_013"
    INDEX 01 00:13:62
  TRACK 14 AUDIO
    TITLE "Step5_Track76_014"
    INDEX 01 00:14:44
  TRACK 15 AUDIO
    TITLE "Step5_Track76_015"
    INDEX 01 00:16:41
  TRACK 16 AUDIO
    TITLE "Step5_Track76_016"
    INDEX 01 00:17:24
  TRACK 17 AUDIO
    TITLE "Step5_Track76_017"
    INDEX 01 00:18:49
  TRACK 18 AUDIO
    TITLE "Step5_Track76_018"
    INDEX 01 00:19:21
  TRACK 19 AUDIO
    TITLE "Step5_Track76_019"
    INDEX 01 00:22:39
  TRACK 20 AUDIO
    TITLE "Step5_Track76_020"
    INDEX 01 00:23:27
  TRACK 21 AUDIO
    TITLE "Step5_Track76_021"
    INDEX 01 00:24:50
  TRACK 22 AUDIO
    TITLE "Step5_Track76_022"
    INDEX 01 00:25:32
  TRACK 23 AUDIO
    TITLE "Step5_Track76_023"
    INDEX 01 00:29:24
  TRACK 24 AUDIO
    TITLE "Step5_Track76_024"
    INDEX 01 00:30:11
  TRACK 25 AUDIO
    TITLE "Step5_Track76_025"
    INDEX 01 00:31:40
  TRACK 26 AUDIO
    TITLE "Step5_Track76_026"
    INDEX 01 00:32:10
  TRACK 27 AUDIO
    TITLE "Step5_Track76_027"
    INDEX 01 00:34:17
  TRACK 28 AUDIO
    TITLE "Step5_Track76_028"
    INDEX 01 00:35:07
  TRACK 29 AUDIO
    TITLE "Step5_Track76_029"
    INDEX 01 00:36:30
  TRACK 30 AUDIO
    TITLE "Step5_Track76_030"
    INDEX 01 00:37:06
  TRACK 31 AUDIO
    TITLE "Step5_Track76_031"
    INDEX 01 00:39:46
  TRACK 32 AUDIO
    TITLE "Step5_Track76_032"
    INDEX 01 00:40:27
  TRACK 33 AUDIO
    TITLE "Step5_Track76_033"
    INDEX 01 00:41:43
  TRACK 34 AUDIO
    TITLE "Step5_Track76_034"
    INDEX 01 00:42:15
  TRACK 35 AUDIO
    TITLE "Step5_Track76_035"
    INDEX 01 00:44:02
  TRACK 36 AUDIO
    TITLE "Step5_Track76_036"
    INDEX 01 00:44:60
  TRACK 37 AUDIO
    TITLE "Step5_Track76_037"
    INDEX 01 00:46:08
  TRACK 38 AUDIO
    TITLE "Step5_Track76_038"
    INDEX 01 00:46:65
  TRACK 39 AUDIO
    TITLE "Step5_Track76_039"
    INDEX 01 00:49:60
  TRACK 40 AUDIO
    TITLE "Step5_Track76_040"
    INDEX 01 00:50:36
  TRACK 41 AUDIO
    TITLE "Step5_Track76_041"
    INDEX 01 00:51:61
  TRACK 42 AUDIO
    TITLE "Step5_Track76_042"
    INDEX 01 00:52:36
  TRACK 43 AUDIO
    TITLE "Step5_Track76_043"
    INDEX 01 00:54:28
  TRACK 44 AUDIO
    TITLE "Step5_Track76_044"
    INDEX 01 00:55:05
  TRACK 45 AUDIO
    TITLE "Step5_Track76_045"
    INDEX 01 00:56:32
  TRACK 46 AUDIO
    TITLE "Step5_Track76_046"
    INDEX 01 00:57:08
  TRACK 47 AUDIO
    TITLE "Step5_Track76_047"
    INDEX 01 00:59:70
  TRACK 48 AUDIO
    TITLE "Step5_Track76_048"
    INDEX 01 01:00:52
  TRACK 49 AUDIO
    TITLE "Step5_Track76_049"
    INDEX 01 01:02:00
  TRACK 50 AUDIO
    TITLE "Step5_Track76_050"
    INDEX 01 01:02:54
  TRACK 51 AUDIO
    TITLE "Step5_Track76_051"
    INDEX 01 01:05:08
  TRACK 52 AUDIO
    TITLE "Step5_Track76_052"
    INDEX 01 01:05:61
  TRACK 53 AUDIO
    TITLE "Step5_Track76_053"
    INDEX 01 01:07:26
  TRACK 54 AUDIO
    TITLE "Step5_Track76_054"
    INDEX 01 01:08:00
  TRACK 55 AUDIO
    TITLE "Step5_Track76_055"
    INDEX 01 01:10:11
  TRACK 56 AUDIO
    TITLE "Step5_Track76_056"
    INDEX 01 01:10:70
  TRACK 57 AUDIO
    TITLE "Step5_Track76_057"
    INDEX 01 01:12:43
  TRACK 58 AUDIO
    TITLE "Step5_Track76_058"
    INDEX 01 01:13:15
  TRACK 59 AUDIO
    TITLE "Step5_Track76_059"
    INDEX 01 01:15:57
  TRACK 60 AUDIO
    TITLE "Step5_Track76_060"
    INDEX 01 01:16:39
  TRACK 61 AUDIO
    TITLE "Step5_Track76_061"
    INDEX 01 01:18:01
  TRACK 62 AUDIO
    TITLE "Step5_Track76_062"
    INDEX 01 01:18:54
  TRACK 63 AUDIO
    TITLE "Step5_Track76_063"
    INDEX 01 01:21:28
  TRACK 64 AUDIO
    TITLE "Step5_Track76_064"
    INDEX 01 01:22:02
  TRACK 65 AUDIO
    TITLE "Step5_Track76_065"
    INDEX 01 01:23:49
  TRACK 66 AUDIO
    TITLE "Step5_Track76_066"
    INDEX 01 01:24:23
  TRACK 67 AUDIO
    TITLE "Step5_Track76_067"
    INDEX 01 01:27:17
  TRACK 68 AUDIO
    TITLE "Step5_Track76_068"
    INDEX 01 01:27:70
  TRACK 69 AUDIO
    TITLE "Step5_Track76_069"
    INDEX 01 01:29:36
  TRACK 70 AUDIO
    TITLE "Step5_Track76_070"
    INDEX 01 01:30:14
  TRACK 71 AUDIO
    TITLE "Step5_Track76_071"
    INDEX 01 01:32:52
  TRACK 72 AUDIO
    TITLE "Step5_Track76_072"
    INDEX 01 01:33:26
  TRACK 73 AUDIO
    TITLE "Step5_Track76_073"
    INDEX 01 01:34:64
  TRACK 74 AUDIO
    TITLE "Step5_Track76_074"
    INDEX 01 01:35:44
  TRACK 75 AUDIO
    TITLE "Step5_Track76_075"
    INDEX 01 01:38:54
  TRACK 76 AUDIO
    TITLE "Step5_Track76_076"
    INDEX 01 01:39:38
  TRACK 77 AUDIO
    TITLE "Step5_Track76_077"
    INDEX 01 01:41:04
  TRACK 78 AUDIO
    TITLE "Step5_Track76_078"
    INDEX 01 01:41:60
  TRACK 79 AUDIO
    TITLE "Step5_Track76_079"
    INDEX 01 01:44:41
  TRACK 80 AUDIO
    TITLE "Step5_Track76_080"
    INDEX 01 01:45:19
  TRACK 81 AUDIO
    TITLE "Step5_Track76_081"
    INDEX 01 01:46:46
  TRACK 82 AUDIO
    TITLE "Step5_Track76_082"
    INDEX 01 01:47:20
  TRACK 83 AUDIO
    TITLE "Step5_Track76_083"
    INDEX 01 01:49:64
  TRACK 84 AUDIO
    TITLE "Step5_Track76_084"
    INDEX 01 01:50:54
  TRACK 85 AUDIO
    TITLE "Step5_Track76_085"
    INDEX 01 01:52:19
  TRACK 86 AUDIO
    TITLE "Step5_Track76_086"
    INDEX 01 01:52:72
  TRACK 87 AUDIO
    TITLE "Step5_Track76_087"
    INDEX 01 01:56:35
  TRACK 88 AUDIO
    TITLE "Step5_Track76_088"
    INDEX 01 01:57:20
  TRACK 89 AUDIO
    TITLE "Step5_Track76_089"
    INDEX 01 01:58:65
  TRACK 90 AUDIO
    TITLE "Step5_Track76_090"
    INDEX 01 01:59:45
  TRACK 91 AUDIO
    TITLE "Step5_Track76_091"
    INDEX 01 02:02:31
  TRACK 92 AUDIO
    TITLE "Step5_Track76_092"
    INDEX 01 02:03:27
  TRACK 93 AUDIO
    TITLE "Step5_Track76_093"
    INDEX 01 02:04:69
  TRACK 94 AUDIO
    TITLE "Step5_Track76_094"
    INDEX 01 02:05:41
  TRACK 95 AUDIO
    TITLE "Step5_Track76_095"
    INDEX 01 02:08:61
  TRACK 96 AUDIO
    TITLE "Step5_Track76_096"
    INDEX 01 02:09:35
  TRACK 97 AUDIO
    TITLE "Step5_Track76_097"
    INDEX 01 02:11:07
  TRACK 98 AUDIO
    TITLE "Step5_Track76_098"
    INDEX 01 02:11:58
  TRACK 99 AUDIO
    TITLE "Step5_Track76_099"
    INDEX 01 02:15:16
  TRACK 100 AUDIO
    TITLE "Step5_Track76_100"
    INDEX 01 02:16:06
  TRACK 101 AUDIO
    TITLE "Step5_Track76_101"
    INDEX 01 02:17:45
  TRACK 102 AUDIO
    TITLE "Step5_Track76_102"
    INDEX 01 02:18:26
  TRACK 103 AUDIO
    TITLE "Step5_Track76_103"
    INDEX 01 02:22:07
  TRACK 104 AUDIO
    TITLE "Step5_Track76_104"
    INDEX 01 02:22:67
  TRACK 105 AUDIO
    TITLE "Step5_Track76_105"
    INDEX 01 02:24:47
  TRACK 106 AUDIO
    TITLE "Step5_Track76_106"
    INDEX 01 02:25:19
  TRACK 107 AUDIO
    TITLE "Step5_Track76_107"
    INDEX 01 02:28:07
  TRACK 108 AUDIO
    TITLE "Step5_Track76_108"
    INDEX 01 02:28:74
  TRACK 109 AUDIO
    TITLE "Step5_Track76_109"
    INDEX 01 02:30:39
  TRACK 110 AUDIO
    TITLE "Step5_Track76_110"
    INDEX 01 02:31:23
  TRACK 111 AUDIO
    TITLE "Step5_Track76_111"
    INDEX 01 02:33:55
  TRACK 112 AUDIO
    TITLE "Step5_Track76_112"
    INDEX 01 02:34:31
  TRACK 113 AUDIO
    TITLE "Step5_Track76_113"
    INDEX 01 02:35:70
  TRACK 114 AUDIO
    TITLE "Step5_Track76_114"
    INDEX 01 02:36:48
  TRACK 115 AUDIO
    TITLE "Step5_Track76_115"
    INDEX 01 02:38:74
  TRACK 116 AUDIO
    TITLE "Step5_Track76_116"
    INDEX 01 02:39:56
  TRACK 117 AUDIO
    TITLE "Step5_Track76_117"
    INDEX 01 02:41:22
  TRACK 118 AUDIO
    TITLE "Step5_Track76_118"
    INDEX 01 02:42:01
  TRACK 119 AUDIO
    TITLE "Step5_Track76_119"
    INDEX 01 02:45:17
  TRACK 120 AUDIO
    TITLE "Step5_Track76_120"
    INDEX 01 02:45:70
  TRACK 121 AUDIO
    TITLE "Step5_Track76_121"
    INDEX 01 02:47:24
  TRACK 122 AUDIO
    TITLE "Step5_Track76_122"
    INDEX 01 02:47:69
  TRACK 123 AUDIO
    TITLE "Step5_Track76_123"
    INDEX 01 02:50:28
  TRACK 124 AUDIO
    TITLE "Step5_Track76_124"
    INDEX 01 02:51:14
  TRACK 125 AUDIO
    TITLE "Step5_Track76_125"
    INDEX 01 02:52:59
  TRACK 126 AUDIO
    TITLE "Step5_Track76_126"
    INDEX 01 02:53:36
  TRACK 127 AUDIO
    TITLE "Step5_Track76_127"
    INDEX 01 02:56:09
  TRACK 128 AUDIO
    TITLE "Step5_Track76_128"
    INDEX 01 02:56:72
  TRACK 129 AUDIO
    TITLE "Step5_Track76_129"
    INDEX 01 02:58:51
  TRACK 130 AUDIO
    TITLE "Step5_Track76_130"
    INDEX 01 02:59:21
  TRACK 131 AUDIO
    TITLE "Step5_Track76_131"
    INDEX 01 03:02:10
  TRACK 132 AUDIO
    TITLE "Step5_Track76_132"
    INDEX 01 03:02:69
  TRACK 133 AUDIO
    TITLE "Step5_Track76_133"
    INDEX 01 03:04:38
  TRACK 134 AUDIO
    TITLE "Step5_Track76_134"
    INDEX 01 03:05:20
  TRACK 135 AUDIO
    TITLE "Step5_Track76_135"
    INDEX 01 03:07:46
  TRACK 136 AUDIO
    TITLE "Step5_Track76_136"
    INDEX 01 03:08:28
  TRACK 137 AUDIO
    TITLE "Step5_Track76_137"
    INDEX 01 03:10:04
  TRACK 138 AUDIO
    TITLE "Step5_Track76_138"
    INDEX 01 03:10:53
  TRACK 139 AUDIO
    TITLE "Step5_Track76_139"
    INDEX 01 03:13:25
  TRACK 140 AUDIO
    TITLE "Step5_Track76_140"
    INDEX 01 03:14:03
  TRACK 141 AUDIO
    TITLE "Step5_Track76_141"
    INDEX 01 03:15:44
  TRACK 142 AUDIO
    TITLE "Step5_Track76_142"
    INDEX 01 03:16:24
  TRACK 143 AUDIO
    TITLE "Step5_Track76_143"
    INDEX 01 03:20:16
  TRACK 144 AUDIO
    TITLE "Step5_Track76_144"
    INDEX 01 03:20:73
  TRACK 145 AUDIO
    TITLE "Step5_Track76_145"
    INDEX 01 03:22:46
  TRACK 146 AUDIO
    TITLE "Step5_Track76_146"
    INDEX 01 03:23:16
  TRACK 147 AUDIO
    TITLE "Step5_Track76_147"
    INDEX 01 03:25:66
  TRACK 148 AUDIO
    TITLE "Step5_Track76_148"
    INDEX 01 03:26:50
  TRACK 149 AUDIO
    TITLE "Step5_Track76_149"
    INDEX 01 03:28:19
  TRACK 150 AUDIO
    TITLE "Step5_Track76_150"
    INDEX 01 03:28:74
  TRACK 151 AUDIO
    TITLE "Step5_Track76_151"
    INDEX 01 03:31:27
  TRACK 152 AUDIO
    TITLE "Step5_Track76_152"
    INDEX 01 03:32:07
  TRACK 153 AUDIO
    TITLE "Step5_Track76_153"
    INDEX 01 03:33:50
  TRACK 154 AUDIO
    TITLE "Step5_Track76_154"
    INDEX 01 03:34:28
  TRACK 155 AUDIO
    TITLE "Step5_Track76_155"
    INDEX 01 03:36:17
  TRACK 156 AUDIO
    TITLE "Step5_Track76_156"
    INDEX 01 03:37:00
  TRACK 157 AUDIO
    TITLE "Step5_Track76_157"
    INDEX 01 03:38:41
  TRACK 158 AUDIO
    TITLE "Step5_Track76_158"
    INDEX 01 03:39:19
  TRACK 159 AUDIO
    TITLE "Step5_Track76_159"
    INDEX 01 03:42:39
  TRACK 160 AUDIO
    TITLE "Step5_Track76_160"
    INDEX 01 03:43:17
  TRACK 161 AUDIO
    TITLE "Step5_Track76_161"
    INDEX 01 03:44:46
  TRACK 162 AUDIO
    TITLE "Step5_Track76_162"
    INDEX 01 03:45:20
  TRACK 163 AUDIO
    TITLE "Step5_Track76_163"
    INDEX 01 03:48:16
  TRACK 164 AUDIO
    TITLE "Step5_Track76_164"
    INDEX 01 03:49:10
  TRACK 165 AUDIO
    TITLE "Step5_Track76_165"
    INDEX 01 03:50:48
  TRACK 166 AUDIO
    TITLE "Step5_Track76_166"
    INDEX 01 03:51:28
  TRACK 167 AUDIO
    TITLE "Step5_Track76_167"
    INDEX 01 03:53:45
  TRACK 168 AUDIO
    TITLE "Step5_Track76_168"
    INDEX 01 03:54:24
  TRACK 169 AUDIO
    TITLE "Step5_Track76_169"
    INDEX 01 03:56:02
  TRACK 170 AUDIO
    TITLE "Step5_Track76_170"
    INDEX 01 03:56:53
  TRACK 171 AUDIO
    TITLE "Step5_Track76_171"
    INDEX 01 04:00:11
  TRACK 172 AUDIO
    TITLE "Step5_Track76_172"
    INDEX 01 04:00:66
  TRACK 173 AUDIO
    TITLE "Step5_Track76_173"
    INDEX 01 04:02:38
  TRACK 174 AUDIO
    TITLE "Step5_Track76_174"
    INDEX 01 04:03:15
  TRACK 175 AUDIO
    TITLE "Step5_Track76_175"
    INDEX 01 04:07:25
  TRACK 176 AUDIO
    TITLE "Step5_Track76_176"
    INDEX 01 04:09:30
  TRACK 177 AUDIO
    TITLE "Step5_Track76_177"
    INDEX 01 04:10:19
  TRACK 178 AUDIO
    TITLE "Step5_Track76_178"
    INDEX 01 04:11:66
  TRACK 179 AUDIO
    TITLE "Step5_Track76_179"
    INDEX 01 04:12:46
  TRACK 180 AUDIO
    TITLE "Step5_Track76_180"
    INDEX 01 04:16:59
  TRACK 181 AUDIO
    TITLE "Step5_Track76_181"
    INDEX 01 04:17:41
  TRACK 182 AUDIO
    TITLE "Step5_Track76_182"
    INDEX 01 04:19:07
  TRACK 183 AUDIO
    TITLE "Step5_Track76_183"
    INDEX 01 04:19:69
  TRACK 184 AUDIO
    TITLE "Step5_Track76_184"
    INDEX 01 04:21:43
  TRACK 185 AUDIO
    TITLE "Step5_Track76_185"
    INDEX 01 04:23:57
  TRACK 186 AUDIO
    TITLE "Step5_Track76_186"
    INDEX 01 04:24:39
  TRACK 187 AUDIO
    TITLE "Step5_Track76_187"
    INDEX 01 04:26:19
  TRACK 188 AUDIO
    TITLE "Step5_Track76_188"
    INDEX 01 04:26:64
  TRACK 189 AUDIO
    TITLE "Step5_Track76_189"
    INDEX 01 04:29:58
  TRACK 190 AUDIO
    TITLE "Step5_Track76_190"
    INDEX 01 04:30:44
  TRACK 191 AUDIO
    TITLE "Step5_Track76_191"
    INDEX 01 04:32:11
  TRACK 192 AUDIO
    TITLE "Step5_Track76_192"
    INDEX 01 04:32:74
  TRACK 193 AUDIO
    TITLE "Step5_Track76_193"
    INDEX 01 04:35:14
  TRACK 194 AUDIO
    TITLE "Step5_Track76_194"
    INDEX 01 04:35:64
  TRACK 195 AUDIO
    TITLE "Step5_Track76_195"
    INDEX 01 04:37:28
  TRACK 196 AUDIO
    TITLE "Step5_Track76_196"
    INDEX 01 04:38:06
  TRACK 197 AUDIO
    TITLE "Step5_Track76_197"
    INDEX 01 04:40:28
  TRACK 198 AUDIO
    TITLE "Step5_Track76_198"
    INDEX 01 04:41:06
  TRACK 199 AUDIO
    TITLE "Step5_Track76_199"
    INDEX 01 04:42:49
  TRACK 200 AUDIO
    TITLE "Step5_Track76_200"
    INDEX 01 04:43:37
  TRACK 201 AUDIO
    TITLE "Step5_Track76_201"
    INDEX 01 04:45:63
  TRACK 202 AUDIO
    TITLE "Step5_Track76_202"
    INDEX 01 04:46:43
  TRACK 203 AUDIO
    TITLE "Step5_Track76_203"
    INDEX 01 04:48:01
  TRACK 204 AUDIO
    TITLE "Step5_Track76_204"
    INDEX 01 04:48:51
  TRACK 205 AUDIO
    TITLE "Step5_Track76_205"
    INDEX 01 04:51:30
  TRACK 206 AUDIO
    TITLE "Step5_Track76_206"
    INDEX 01 04:52:08
  TRACK 207 AUDIO
    TITLE "Step5_Track76_207"
    INDEX 01 04:53:47
  TRACK 208 AUDIO
    TITLE "Step5_Track76_208"
    INDEX 01 04:54:30
  TRACK 209 AUDIO
    TITLE "Step5_Track76_209"
    INDEX 01 04:56:49
  TRACK 210 AUDIO
    TITLE "Step5_Track76_210"
    INDEX 01 04:57:31
  TRACK 211 AUDIO
    TITLE "Step5_Track76_211"
    INDEX 01 04:59:08
  TRACK 212 AUDIO
    TITLE "Step5_Track76_212"
    INDEX 01 04:59:61
  TRACK 213 AUDIO
    TITLE "Step5_Track76_213"
    INDEX 01 05:02:10
  TRACK 214 AUDIO
    TITLE "Step5_Track76_214"
    INDEX 01 05:02:61
  TRACK 215 AUDIO
    TITLE "Step5_Track76_215"
    INDEX 01 05:04:29
  TRACK 216 AUDIO
    TITLE "Step5_Track76_216"
    INDEX 01 05:05:09
  TRACK 217 AUDIO
    TITLE "Step5_Track76_217"
    INDEX 01 05:07:39
  TRACK 218 AUDIO
    TITLE "Step5_Track76_218"
    INDEX 01 05:08:19
  TRACK 219 AUDIO
    TITLE "Step5_Track76_219"
    INDEX 01 05:09:71
  TRACK 220 AUDIO
    TITLE "Step5_Track76_220"
    INDEX 01 05:10:43
  TRACK 221 AUDIO
    TITLE "Step5_Track76_221"
    INDEX 01 05:13:22
  TRACK 222 AUDIO
    TITLE "Step5_Track76_222"
    INDEX 01 05:14:14
  TRACK 223 AUDIO
    TITLE "Step5_Track76_223"
    INDEX 01 05:15:50
  TRACK 224 AUDIO
    TITLE "Step5_Track76_224"
    INDEX 01 05:16:38
  TRACK 225 AUDIO
    TITLE "Step5_Track76_225"
    INDEX 01 05:18:60
  TRACK 226 AUDIO
    TITLE "Step5_Track76_226"
    INDEX 01 05:19:42
  TRACK 227 AUDIO
    TITLE "Step5_Track76_227"
    INDEX 01 05:21:21
  TRACK 228 AUDIO
    TITLE "Step5_Track76_228"
    INDEX 01 05:21:69
  TRACK 229 AUDIO
    TITLE "Step5_Track76_229"
    INDEX 01 05:24:10
  TRACK 230 AUDIO
    TITLE "Step5_Track76_230"
    INDEX 01 05:24:73
  TRACK 231 AUDIO
    TITLE "Step5_Track76_231"
    INDEX 01 05:26:42
  TRACK 232 AUDIO
    TITLE "Step5_Track76_232"
    INDEX 01 05:27:24
  TRACK 233 AUDIO
    TITLE "Step5_Track76_233"
    INDEX 01 05:29:39
  TRACK 234 AUDIO
    TITLE "Step5_Track76_234"
    INDEX 01 05:30:22
  TRACK 235 AUDIO
    TITLE "Step5_Track76_235"
    INDEX 01 05:31:57
  TRACK 236 AUDIO
    TITLE "Step5_Track76_236"
    INDEX 01 05:32:43
  TRACK 237 AUDIO
    TITLE "Step5_Track76_237"
    INDEX 01 05:34:36
  TRACK 238 AUDIO
    TITLE "Step5_Track76_238"
    INDEX 01 05:35:26
  TRACK 239 AUDIO
    TITLE "Step5_Track76_239"
    INDEX 01 05:36:68
  TRACK 240 AUDIO
    TITLE "Step5_Track76_240"
    INDEX 01 05:37:44
  TRACK 241 AUDIO
    TITLE "Step5_Track76_241"
    INDEX 01 05:42:10
  TRACK 242 AUDIO
    TITLE "Step5_Track76_242"
    INDEX 01 05:42:65
  TRACK 243 AUDIO
    TITLE "Step5_Track76_243"
    INDEX 01 05:44:24
  TRACK 244 AUDIO
    TITLE "Step5_Track76_244"
    INDEX 01 05:44:68
  TRACK 245 AUDIO
    TITLE "Step5_Track76_245"
    INDEX 01 05:48:60
  TRACK 246 AUDIO
    TITLE "Step5_Track76_246"
    INDEX 01 05:49:43
  TRACK 247 AUDIO
    TITLE "Step5_Track76_247"
    INDEX 01 05:51:07
  TRACK 248 AUDIO
    TITLE "Step5_Track76_248"
    INDEX 01 05:51:62
  TRACK 249 AUDIO
    TITLE "Step5_Track76_249"
    INDEX 01 05:56:37
  TRACK 250 AUDIO
    TITLE "Step5_Track76_250"
    INDEX 01 05:57:21
  TRACK 251 AUDIO
    TITLE "Step5_Track76_251"
    INDEX 01 05:59:01
  TRACK 252 AUDIO
    TITLE "Step5_Track76_252"
    INDEX 01 05:59:52
  TRACK 253 AUDIO
    TITLE "Step5_Track76_253"
    INDEX 01 06:02:52
  TRACK 254 AUDIO
    TITLE "Step5_Track76_254"
    INDEX 01 06:03:36
  TRACK 255 AUDIO
    TITLE "Step5_Track76_255"
    INDEX 01 06:05:03
  TRACK 256 AUDIO
    TITLE "Step5_Track76_256"
    INDEX 01 06:05:56
  TRACK 257 AUDIO
    TITLE "Step5_Track76_257"
    INDEX 01 06:08:15
  TRACK 258 AUDIO
    TITLE "Step5_Track76_258"
    INDEX 01 06:08:68
  TRACK 259 AUDIO
    TITLE "Step5_Track76_259"
    INDEX 01 06:10:47
  TRACK 260 AUDIO
    TITLE "Step5_Track76_260"
    INDEX 01 06:11:23
  TRACK 261 AUDIO
    TITLE "Step5_Track76_261"
    INDEX 01 06:14:61
  TRACK 262 AUDIO
    TITLE "Step5_Track76_262"
    INDEX 01 06:15:52
  TRACK 263 AUDIO
    TITLE "Step5_Track76_263"
    INDEX 01 06:17:24
  TRACK 264 AUDIO
    TITLE "Step5_Track76_264"
    INDEX 01 06:18:10
  TRACK 265 AUDIO
    TITLE "Step5_Track76_265"
    INDEX 01 06:20:28
  TRACK 266 AUDIO
    TITLE "Step5_Track76_266"
    INDEX 01 06:21:12
  TRACK 267 AUDIO
    TITLE "Step5_Track76_267"
    INDEX 01 06:22:68
  TRACK 268 AUDIO
    TITLE "Step5_Track76_268"
    INDEX 01 06:23:38
  TRACK 269 AUDIO
    TITLE "Step5_Track76_269"
    INDEX 01 06:26:03
  TRACK 270 AUDIO
    TITLE "Step5_Track76_270"
    INDEX 01 06:26:64
  TRACK 271 AUDIO
    TITLE "Step5_Track76_271"
    INDEX 01 06:28:43
  TRACK 272 AUDIO
    TITLE "Step5_Track76_272"
    INDEX 01 06:29:25
  TRACK 273 AUDIO
    TITLE "Step5_Track76_273"
    INDEX 01 06:32:24
  TRACK 274 AUDIO
    TITLE "Step5_Track76_274"
    INDEX 01 06:33:03
  TRACK 275 AUDIO
    TITLE "Step5_Track76_275"
    INDEX 01 06:34:46
  TRACK 276 AUDIO
    TITLE "Step5_Track76_276"
    INDEX 01 06:35:22
  TRACK 277 AUDIO
    TITLE "Step5_Track76_277"
    INDEX 01 06:37:19
  TRACK 278 AUDIO
    TITLE "Step5_Track76_278"
    INDEX 01 06:38:01
  TRACK 279 AUDIO
    TITLE "Step5_Track76_279"
    INDEX 01 06:39:47
  TRACK 280 AUDIO
    TITLE "Step5_Track76_280"
    INDEX 01 06:40:25
  TRACK 281 AUDIO
    TITLE "Step5_Track76_281"
    INDEX 01 06:42:73
  TRACK 282 AUDIO
    TITLE "Step5_Track76_282"
    INDEX 01 06:43:57
  TRACK 283 AUDIO
    TITLE "Step5_Track76_283"
    INDEX 01 06:45:14
  TRACK 284 AUDIO
    TITLE "Step5_Track76_284"
    INDEX 01 06:45:65
  TRACK 285 AUDIO
    TITLE "Step5_Track76_285"
    INDEX 01 06:47:64
  TRACK 286 AUDIO
    TITLE "Step5_Track76_286"
    INDEX 01 06:48:48
  TRACK 287 AUDIO
    TITLE "Step5_Track76_287"
    INDEX 01 06:50:14
  TRACK 288 AUDIO
    TITLE "Step5_Track76_288"
    INDEX 01 06:50:74
  TRACK 289 AUDIO
    TITLE "Step5_Track76_289"
    INDEX 01 06:52:54
  TRACK 290 AUDIO
    TITLE "Step5_Track76_290"
    INDEX 01 06:53:45
  TRACK 291 AUDIO
    TITLE "Step5_Track76_291"
    INDEX 01 06:55:27
  TRACK 292 AUDIO
    TITLE "Step5_Track76_292"
    INDEX 01 06:56:02
  TRACK 293 AUDIO
    TITLE "Step5_Track76_293"
    INDEX 01 06:57:69
  TRACK 294 AUDIO
    TITLE "Step5_Track76_294"
    INDEX 01 06:58:56
  TRACK 295 AUDIO
    TITLE "Step5_Track76_295"
    INDEX 01 07:00:30
  TRACK 296 AUDIO
    TITLE "Step5_Track76_296"
    INDEX 01 07:01:13
  TRACK 297 AUDIO
    TITLE "Step5_Track76_297"
    INDEX 01 07:03:14
  TRACK 298 AUDIO
    TITLE "Step5_Track76_298"
    INDEX 01 07:03:65
  TRACK 299 AUDIO
    TITLE "Step5_Track76_299"
    INDEX 01 07:05:52
  TRACK 300 AUDIO
    TITLE "Step5_Track76_300"
    INDEX 01 07:06:28
  TRACK 301 AUDIO
    TITLE "Step5_Track76_301"
    INDEX 01 07:09:42
  TRACK 302 AUDIO
    TITLE "Step5_Track76_302"
    INDEX 01 07:10:22
  TRACK 303 AUDIO
    TITLE "Step5_Track76_303"
    INDEX 01 07:11:71
  TRACK 304 AUDIO
    TITLE "Step5_Track76_304"
    INDEX 01 07:12:54
  TRACK 305 AUDIO
    TITLE "Step5_Track76_305"
    INDEX 01 07:15:37
